<svg width="82" height="79" viewBox="0 0 82 79" fill="none" xmlns="http://www.w3.org/2000/svg">
<path d="M22.7133 37.6777C23.9489 35.9009 23.5017 33.4651 21.7366 32.2296C21.0659 31.7707 20.3128 31.5353 19.5597 31.5353C18.3007 31.5236 17.0651 32.1119 16.2885 33.218C15.053 34.9948 15.5001 37.4306 17.2652 38.6662C17.9359 39.1251 18.689 39.3604 19.4421 39.3604C20.7011 39.3722 21.9367 38.7838 22.7133 37.6777Z" fill="url(#paint0_linear_3498_3645)"/>
<path d="M52.3908 49.5151C52.3791 49.5151 52.3791 49.5151 52.3908 49.5151C52.3673 49.5975 53.6264 50.68 54.7795 51.6802C59.757 55.987 63.5107 60.0466 62.8282 61.0233C62.6752 61.2468 62.3575 61.341 61.9104 61.3292C58.698 61.2351 48.3783 55.6928 36.9054 47.7265C31.6691 44.0905 26.9975 40.5133 23.338 37.395C23.2438 37.5715 23.1497 37.7363 23.032 37.901C22.7732 38.2658 22.4672 38.5953 22.126 38.8541C26.0797 42.2313 31.2219 46.1262 36.7171 49.9387C49.6256 58.9052 61.3338 65.0123 65.0757 64.9299C65.617 64.9182 65.9818 64.777 66.1818 64.5063C67.3585 62.8236 62.0869 57.0931 52.3908 49.5151Z" fill="url(#paint1_linear_3498_3645)"/>
<path d="M15.9479 32.9943C15.9597 32.9943 15.9597 32.9943 15.9479 32.9943C16.3245 32.453 16.8069 32.0294 17.3482 31.7117C17.1835 31.5234 17.0423 31.3586 16.9952 31.2998C15.7361 29.7936 15.0419 28.5699 15.3831 28.0756C15.5361 27.8638 15.8303 27.7697 16.2774 27.7697C16.9246 27.7815 17.866 28.0168 19.0544 28.4639C19.0427 28.4639 19.0309 28.4522 19.0309 28.4522C19.0427 28.4522 19.0544 28.4639 19.0662 28.4639C16.8187 27.5226 15.0654 27.0166 13.9593 27.0166C13.3827 27.0166 12.9826 27.1578 12.7826 27.4402C12.2649 28.1815 13.2533 29.9466 15.4302 32.3941C15.489 32.4765 15.7126 32.7236 15.9479 32.9943Z" fill="url(#paint2_linear_3498_3645)"/>
<path d="M31.0702 30.8414L32.0469 30.5237L31.0702 30.206L31.8115 29.2058L30.9055 29.8765L30.5054 27.0171L30.0818 29.8765L29.1875 29.2058L29.9288 30.206L28.9521 30.5237L29.9288 30.8414L29.1757 31.8416L30.0818 31.1591L30.4936 34.0303L30.9055 31.1591L31.8115 31.8416L31.0702 30.8414Z" fill="url(#paint3_linear_3498_3645)"/>
<path d="M47.9553 62.6595L48.8379 62.4947L47.9671 62.3182L48.6496 61.5181L47.7318 62.1182L47.5435 60.918L47.3435 62.1182L46.4256 61.5181L47.1081 62.3182L46.2256 62.483L47.1081 62.6595L46.4256 63.4596L47.3317 62.8595L47.5317 64.0598L47.7318 62.8595L48.6378 63.4596L47.9553 62.6595Z" fill="url(#paint4_linear_3498_3645)"/>
<path d="M39.4942 58.1408C46.2075 58.1408 51.6496 52.6987 51.6496 45.9854C51.6496 39.2722 46.2075 33.8301 39.4942 33.8301C32.781 33.8301 27.3389 39.2722 27.3389 45.9854C27.3389 52.6987 32.781 58.1408 39.4942 58.1408Z" fill="url(#paint5_linear_3498_3645)"/>
<path d="M22.7153 37.6782C23.9508 35.9014 23.5037 33.4656 21.7386 32.2301C21.0679 31.7712 20.3148 31.5358 19.5617 31.5358C18.3026 31.5241 17.0671 32.1124 16.2905 33.2185C15.0549 34.9953 15.5021 37.4311 17.2671 38.6667C17.9378 39.1256 18.6909 39.3609 19.444 39.3609C20.7031 39.3727 21.9386 38.7843 22.7153 37.6782Z" fill="url(#paint6_linear_3498_3645)"/>
<path d="M52.3928 49.5156C52.381 49.5156 52.381 49.5156 52.3928 49.5156C52.3693 49.5979 53.6283 50.6805 54.7815 51.6807C59.759 55.9875 63.5127 60.0471 62.8302 61.0237C62.6772 61.2473 62.3595 61.3415 61.9123 61.3297C58.6999 61.2356 48.3802 55.6933 36.9073 47.727C31.671 44.091 26.9995 40.5138 23.3399 37.3955C23.2458 37.572 23.1517 37.7368 23.034 37.9015C22.7751 38.2663 22.4692 38.5958 22.1279 38.8546C26.0817 42.2318 31.2239 46.1267 36.7191 49.9392C49.6275 58.9057 61.3358 65.0128 65.0777 64.9304C65.619 64.9186 65.9837 64.7774 66.1838 64.5068C67.3605 62.8241 62.0888 57.0936 52.3928 49.5156Z" fill="url(#paint7_linear_3498_3645)"/>
<path d="M15.9499 32.9948C15.9617 32.9948 15.9617 32.9948 15.9499 32.9948C16.3264 32.4535 16.8089 32.0299 17.3502 31.7121C17.1854 31.5239 17.0442 31.3591 16.9972 31.3003C15.7381 29.7941 15.0438 28.5703 15.3851 28.0761C15.538 27.8643 15.8322 27.7702 16.2794 27.7702C16.9266 27.7819 17.8679 28.0173 19.0564 28.4644C19.0446 28.4644 19.0329 28.4527 19.0329 28.4527C19.0446 28.4527 19.0564 28.4644 19.0682 28.4644C16.8207 27.5231 15.0674 27.0171 13.9613 27.0171C13.3847 27.0171 12.9846 27.1583 12.7846 27.4407C12.2668 28.182 13.2552 29.9471 15.4321 32.3946C15.491 32.477 15.7146 32.7241 15.9499 32.9948Z" fill="url(#paint8_linear_3498_3645)"/>
<path d="M56.2768 37.6782C55.0412 35.9014 55.4884 33.4656 57.2534 32.2301C57.9242 31.7712 58.6773 31.5358 59.4304 31.5358C60.6894 31.5241 61.925 32.1124 62.7016 33.2185C63.9371 34.9953 63.49 37.4311 61.7249 38.6667C61.0542 39.1256 60.3011 39.3609 59.548 39.3609C58.2889 39.3727 57.0534 38.7843 56.2768 37.6782Z" fill="url(#paint9_linear_3498_3645)"/>
<path d="M26.5999 49.5156C26.5999 49.5156 26.6116 49.5156 26.5999 49.5156C26.6234 49.5979 25.3643 50.6805 24.2111 51.6807C19.2337 55.9875 15.48 60.0471 16.1625 61.0237C16.3155 61.2473 16.6332 61.3415 17.0803 61.3297C20.2927 61.2356 30.6124 55.6933 42.0853 47.727C47.3216 44.091 51.9932 40.5138 55.6527 37.3955C55.7468 37.572 55.841 37.7368 55.9587 37.9015C56.2175 38.2663 56.5235 38.5958 56.8647 38.8546C52.911 42.2318 47.7688 46.1267 42.2736 49.9392C29.3651 58.9057 17.6569 65.0128 13.915 64.9304C13.3737 64.9186 13.0089 64.7774 12.8089 64.5068C11.6204 62.8241 16.9038 57.0936 26.5999 49.5156Z" fill="url(#paint10_linear_3498_3645)"/>
<path d="M63.0431 32.9948C63.0313 32.9948 63.0313 32.9948 63.0431 32.9948C62.6665 32.4535 62.1841 32.0299 61.6428 31.7121C61.8075 31.5239 61.9487 31.3591 61.9958 31.3003C63.2549 29.7941 63.9491 28.5703 63.6079 28.0761C63.4549 27.8643 63.1607 27.7702 62.7136 27.7702C62.0664 27.7819 61.125 28.0173 59.9366 28.4644C59.9483 28.4644 59.9601 28.4527 59.9601 28.4527C59.9483 28.4527 59.9366 28.4644 59.9248 28.4644C62.1723 27.5231 63.9256 27.0171 65.0317 27.0171C65.6083 27.0171 66.0084 27.1583 66.2084 27.4407C66.7262 28.182 65.7377 29.9471 63.5608 32.3946C63.502 32.477 63.2784 32.7241 63.0431 32.9948Z" fill="url(#paint11_linear_3498_3645)"/>
<path d="M43.5889 70.6613C44.0126 70.0377 44.2597 69.2846 44.2714 68.4727C44.2832 66.3075 42.5417 64.5542 40.3765 64.5425C39.0233 64.5425 37.8349 65.2132 37.1288 66.2487C36.7052 66.8724 36.4581 67.6254 36.4463 68.4374C36.4346 70.6025 38.1761 72.3558 40.3412 72.3676C41.6945 72.3793 42.8829 71.6968 43.5889 70.6613Z" fill="url(#paint12_linear_3498_3645)"/>
<path d="M47.7069 33.4421C47.0715 21.1455 45.4006 13.544 43.3414 13.5322C43.0119 13.5322 42.6824 13.7558 42.3647 14.1912C40.1525 17.2153 38.4345 30.312 38.3639 46.0211C38.3404 52.7165 38.5757 59.1649 39.0699 64.3424C39.4818 64.2129 39.9289 64.1423 40.3761 64.1423C40.5761 64.1423 40.7762 64.1541 40.9644 64.1894C40.5173 59.412 40.2584 53.5284 40.2937 47.1507C40.3525 33.195 41.7293 21.5574 43.5061 18.8745C43.7532 18.4979 44.0239 18.2979 44.2827 18.2979C45.4712 18.2979 46.6361 23.699 47.3069 30.2532C47.4598 31.7712 47.6363 33.4185 47.7069 33.4421Z" fill="url(#paint13_linear_3498_3645)"/>
<path d="M45.8243 72.8266C45.5066 74.0504 45.1535 74.9565 44.8005 75.4978C44.5534 75.8625 44.2945 76.0508 44.0357 76.0508C43.4356 76.0508 42.8237 74.7682 42.3177 72.8855C42.2941 72.8149 42.2471 72.6031 42.1882 72.356C41.6234 72.6266 40.988 72.7678 40.3408 72.7678C40.4232 73.1208 40.5056 73.4385 40.5291 73.5562C41.2939 76.7333 42.1647 78.5572 43.0708 78.5572C43.4238 78.5572 43.765 78.3101 44.0945 77.8276C44.7182 76.9216 45.3065 75.1918 45.8243 72.8266C45.8243 72.8384 45.8243 72.8502 45.8125 72.8619C45.8243 72.8384 45.8243 72.8384 45.8243 72.8266Z" fill="url(#paint14_linear_3498_3645)"/>
<path d="M4.80555 22.463C4.89969 22.6866 4.91145 22.9455 4.85262 23.2514C4.79378 23.5574 4.66435 23.8633 4.47607 24.1692C4.2878 24.4752 4.04069 24.7105 3.73475 24.8635C3.44057 25.0165 3.1111 25.0635 2.75808 25.0282C2.40507 24.9929 2.05206 24.8635 1.69905 24.6517L1.19307 24.3457C0.640014 24.0045 0.298769 23.5927 0.145798 23.122C0.00459299 22.6513 0.0751953 22.1806 0.357605 21.7099C0.61648 21.2981 0.922423 21.0392 1.27543 20.9215C1.64021 20.8039 2.01676 20.8274 2.40507 21.0157L2.19326 21.3451C1.87555 21.2157 1.58138 21.1922 1.31074 21.2863C1.04009 21.3804 0.81652 21.5805 0.628247 21.8864C0.392906 22.2512 0.345838 22.6278 0.475275 23.0161C0.604713 23.3926 0.910656 23.7339 1.39311 24.028L1.86379 24.3222C2.16973 24.5105 2.46391 24.6282 2.75808 24.6635C3.05226 24.7105 3.3229 24.6635 3.57001 24.5576C3.81712 24.4399 4.01716 24.2634 4.17013 24.0163C4.34664 23.7221 4.45254 23.4515 4.49961 23.1926C4.52314 23.0161 4.51137 22.8749 4.47607 22.7572L3.45234 22.1218L2.79338 23.1808L2.51098 23.0043L3.38174 21.604L4.80555 22.463Z" fill="#CD7AEE"/>
<path d="M8.9833 16.1913L7.53595 17.7445L8.17137 18.9918L7.88896 19.2978L5.67676 14.8263L5.93563 14.5557L10.5601 16.4384L10.2777 16.7443L8.9833 16.1913ZM7.38298 17.4268L8.65382 16.0618L6.15921 15.0146L7.38298 17.4268Z" fill="#CD7AEE"/>
<path d="M14.007 13.026L15.8545 11.6492L16.0545 11.9199L13.8894 13.532L11.1006 9.79003L11.4183 9.55469L14.007 13.026Z" fill="#CD7AEE"/>
<path d="M21.6191 7.24852L19.7246 8.18988L19.8775 9.57839L19.501 9.76667L19.0186 4.80097L19.3598 4.63623L23.0076 8.03691L22.6428 8.21341L21.6191 7.24852ZM19.6775 7.83687L21.3602 7.01317L19.3951 5.14221L19.6775 7.83687Z" fill="#CD7AEE"/>
<path d="M29.9158 4.24814C29.9981 4.73059 29.9275 5.14244 29.704 5.47192C29.4804 5.8014 29.1391 6.03674 28.6567 6.16617C28.3272 6.26031 28.0095 6.24854 27.7036 6.15441C27.3976 6.06027 27.1387 5.872 26.9152 5.61312C26.6916 5.34248 26.5269 5.013 26.421 4.62469L26.2562 4.03634C26.1503 3.63626 26.115 3.25971 26.1739 2.91847C26.2327 2.56546 26.3621 2.28305 26.5857 2.03594C26.7975 1.8006 27.0799 1.62409 27.4212 1.54172C27.9036 1.41228 28.3155 1.43582 28.6685 1.62409C29.0215 1.81236 29.2804 2.11831 29.4451 2.56546L29.0568 2.67136C28.7508 1.93004 28.2331 1.65939 27.5035 1.85943C27.0917 1.96534 26.8093 2.21244 26.6563 2.58899C26.4916 2.96554 26.4916 3.41268 26.6328 3.95397L26.7857 4.50702C26.9269 5.02477 27.1623 5.41308 27.48 5.64842C27.7977 5.89553 28.1625 5.96613 28.5626 5.84846C28.9626 5.74256 29.2333 5.56605 29.3863 5.31895C29.5392 5.07184 29.5863 4.75413 29.5275 4.35405L29.9158 4.24814Z" fill="#CD7AEE"/>
<path d="M37.6348 0.329477L36.0463 0.458915L36.3875 4.77742L35.9992 4.81273L35.658 0.494216L34.0694 0.623654L34.0459 0.294176L37.6113 0L37.6348 0.329477Z" fill="#CD7AEE"/>
<path d="M42.9674 4.80096L42.5791 4.76566L42.9439 0.117676L43.3322 0.152977L42.9674 4.80096Z" fill="#CD7AEE"/>
<path d="M50.0148 3.23564L51.7564 1.63532L52.2153 1.75299L50.1678 3.62395L51.1562 6.29507L50.6973 6.1774L49.8619 3.87106L48.0497 5.53021L47.5908 5.42431L49.7089 3.50628L48.7558 0.905762L49.2147 1.02343L50.0148 3.23564Z" fill="#CD7AEE"/>
<path d="M60.5346 10.0017L62.9821 11.5314L62.8056 11.8139L59.958 10.037L60.111 9.78992L64.5942 7.83659L62.3232 6.41278L62.4997 6.13037L65.1944 7.81306L65.0414 8.0484L60.5346 10.0017Z" fill="#CD7AEE"/>
<path d="M70.3141 15.3795C70.02 15.6972 69.714 15.9208 69.3845 16.062C69.0551 16.2032 68.7256 16.2385 68.4079 16.1797C68.0902 16.1208 67.796 15.9679 67.5253 15.7208C67.1253 15.356 66.937 14.9088 66.9488 14.3911C66.9723 13.8733 67.2076 13.3791 67.6548 12.8967L67.9843 12.5436C68.2784 12.2377 68.5844 12.0024 68.9139 11.8729C69.2433 11.7317 69.5728 11.6964 69.9023 11.7553C70.22 11.8141 70.5142 11.9671 70.7848 12.2024C71.0437 12.4495 71.2202 12.7202 71.3026 13.0379C71.3849 13.3556 71.3732 13.6733 71.2673 14.0028C71.1614 14.3322 70.9731 14.6617 70.6907 14.9677L70.3141 15.3795ZM70.373 14.7323C70.7495 14.3205 70.9613 13.9086 70.9849 13.5085C71.0202 13.0967 70.8672 12.7437 70.5377 12.4495C70.22 12.1553 69.8552 12.0377 69.4551 12.0965C69.0551 12.1553 68.655 12.3907 68.2667 12.8143L67.9372 13.1673C67.5607 13.5674 67.3606 13.9792 67.3253 14.3911C67.29 14.8029 67.443 15.1559 67.7607 15.4619C68.0902 15.7678 68.4549 15.8855 68.855 15.8149C69.2551 15.7561 69.6552 15.5089 70.0317 15.0853L70.373 14.7323Z" fill="#CD7AEE"/>
<path d="M74.0445 23.2518L73.8091 22.934L75.4801 18.4273L72.2441 20.7571L72.0088 20.4394L75.7978 17.7095L76.0331 18.0272L74.3622 22.5457L77.5981 20.2041L77.8217 20.5218L74.0445 23.2518Z" fill="#CD7AEE"/>
<path d="M79.5958 28.9117L78.678 26.9348L76.9482 27.735L77.9955 30.0178L77.6895 30.159L76.4775 27.5232L80.7137 25.5698L81.9257 28.1939L81.6197 28.3351L80.5725 26.0758L78.9722 26.8171L79.89 28.794L79.5958 28.9117Z" fill="#CD7AEE"/>
<defs>
<linearGradient id="paint0_linear_3498_3645" x1="15.5788" y1="35.4479" x2="23.4075" y2="35.4479" gradientUnits="userSpaceOnUse">
<stop stop-color="#31C3FF"/>
<stop offset="1" stop-color="#BC35FE"/>
</linearGradient>
<linearGradient id="paint1_linear_3498_3645" x1="22.1229" y1="51.1704" x2="66.3473" y2="51.1704" gradientUnits="userSpaceOnUse">
<stop stop-color="#31C3FF"/>
<stop offset="1" stop-color="#BC35FE"/>
</linearGradient>
<linearGradient id="paint2_linear_3498_3645" x1="12.6397" y1="30.0037" x2="19.0594" y2="30.0037" gradientUnits="userSpaceOnUse">
<stop stop-color="#31C3FF"/>
<stop offset="1" stop-color="#BC35FE"/>
</linearGradient>
<linearGradient id="paint3_linear_3498_3645" x1="20.1502" y1="35.4477" x2="48.0752" y2="22.1501" gradientUnits="userSpaceOnUse">
<stop stop-color="#B20461"/>
<stop offset="1" stop-color="#F38F02"/>
</linearGradient>
<linearGradient id="paint4_linear_3498_3645" x1="33.9423" y1="68.9609" x2="61.8674" y2="55.6633" gradientUnits="userSpaceOnUse">
<stop stop-color="#B20461"/>
<stop offset="1" stop-color="#F38F02"/>
</linearGradient>
<linearGradient id="paint5_linear_3498_3645" x1="27.2983" y1="51.8314" x2="50.0192" y2="40.9299" gradientUnits="userSpaceOnUse">
<stop stop-color="#B20461"/>
<stop offset="1" stop-color="#F38F02"/>
</linearGradient>
<linearGradient id="paint6_linear_3498_3645" x1="19.4951" y1="13.544" x2="19.4951" y2="76.698" gradientUnits="userSpaceOnUse">
<stop offset="1.1e-07" stop-color="#D576ED"/>
<stop offset="1" stop-color="#34C2FF"/>
</linearGradient>
<linearGradient id="paint7_linear_3498_3645" x1="44.237" y1="13.5437" x2="44.237" y2="76.6979" gradientUnits="userSpaceOnUse">
<stop offset="1.1e-07" stop-color="#D576ED"/>
<stop offset="1" stop-color="#34C2FF"/>
</linearGradient>
<linearGradient id="paint8_linear_3498_3645" x1="15.8515" y1="13.5438" x2="15.8515" y2="76.6981" gradientUnits="userSpaceOnUse">
<stop offset="1.1e-07" stop-color="#D576ED"/>
<stop offset="1" stop-color="#34C2FF"/>
</linearGradient>
<linearGradient id="paint9_linear_3498_3645" x1="59.496" y1="13.544" x2="59.496" y2="76.698" gradientUnits="userSpaceOnUse">
<stop offset="1.1e-07" stop-color="#D576ED"/>
<stop offset="1" stop-color="#34C2FF"/>
</linearGradient>
<linearGradient id="paint10_linear_3498_3645" x1="34.7546" y1="13.5437" x2="34.7546" y2="76.6979" gradientUnits="userSpaceOnUse">
<stop offset="1.1e-07" stop-color="#D576ED"/>
<stop offset="1" stop-color="#34C2FF"/>
</linearGradient>
<linearGradient id="paint11_linear_3498_3645" x1="63.1405" y1="13.5438" x2="63.1405" y2="76.6981" gradientUnits="userSpaceOnUse">
<stop offset="1.1e-07" stop-color="#D576ED"/>
<stop offset="1" stop-color="#34C2FF"/>
</linearGradient>
<linearGradient id="paint12_linear_3498_3645" x1="40.3576" y1="13.544" x2="40.3576" y2="76.6982" gradientUnits="userSpaceOnUse">
<stop offset="1.1e-07" stop-color="#D576ED"/>
<stop offset="1" stop-color="#34C2FF"/>
</linearGradient>
<linearGradient id="paint13_linear_3498_3645" x1="43.0369" y1="13.5346" x2="43.0369" y2="76.6889" gradientUnits="userSpaceOnUse">
<stop offset="1.1e-07" stop-color="#D576ED"/>
<stop offset="1" stop-color="#34C2FF"/>
</linearGradient>
<linearGradient id="paint14_linear_3498_3645" x1="43.0815" y1="13.5443" x2="43.0815" y2="76.6985" gradientUnits="userSpaceOnUse">
<stop offset="1.1e-07" stop-color="#D576ED"/>
<stop offset="1" stop-color="#34C2FF"/>
</linearGradient>
</defs>
</svg>
