<svg width="24" height="24" viewBox="0 0 24 24" fill="none" xmlns="http://www.w3.org/2000/svg">
<path opacity="0.4" d="M21.25 13.4764C20.429 13.4764 19.761 12.8145 19.761 12.001C19.761 11.1865 20.429 10.5246 21.25 10.5246C21.449 10.5246 21.64 10.4463 21.78 10.3076C21.921 10.1679 22 9.97864 22 9.78146L21.999 7.10415C21.999 4.84102 20.14 3 17.856 3H6.144C3.86 3 2.001 4.84102 2.001 7.10415L2 9.86766C2 10.0648 2.079 10.2541 2.22 10.3938C2.36 10.5325 2.551 10.6108 2.75 10.6108C3.599 10.6108 4.239 11.2083 4.239 12.001C4.239 12.8145 3.571 13.4764 2.75 13.4764C2.336 13.4764 2 13.8093 2 14.2195V16.8949C2 19.158 3.858 21 6.143 21H17.857C20.142 21 22 19.158 22 16.8949V14.2195C22 13.8093 21.664 13.4764 21.25 13.4764Z" fill="white"/>
<path d="M15.4308 11.5887L14.2518 12.7367L14.5308 14.3597C14.5788 14.6407 14.4658 14.9177 14.2348 15.0837C14.0058 15.2517 13.7068 15.2727 13.4548 15.1387L11.9998 14.3737L10.5418 15.1397C10.4338 15.1967 10.3158 15.2267 10.1988 15.2267C10.0458 15.2267 9.89483 15.1787 9.76483 15.0847C9.53483 14.9177 9.42183 14.6407 9.46983 14.3597L9.74783 12.7367L8.56883 11.5887C8.36483 11.3907 8.29383 11.0997 8.38183 10.8287C8.47083 10.5587 8.70083 10.3667 8.98183 10.3267L10.6078 10.0897L11.3368 8.61268C11.4638 8.35868 11.7178 8.20068 11.9998 8.20068H12.0018C12.2848 8.20168 12.5388 8.35968 12.6638 8.61368L13.3928 10.0897L15.0218 10.3277C15.2998 10.3667 15.5298 10.5587 15.6178 10.8287C15.7068 11.0997 15.6358 11.3907 15.4308 11.5887Z" fill="white"/>
</svg>
